<svg xmlns="http://www.w3.org/2000/svg" viewBox="0 0 24 24"><path d="M17.5 4h-14A2.5 2.5 0 0 0 1 6.5v8A2.5 2.5 0 0 0 3.5 17h8a.5.5 0 0 0 0-1h-8A1.5 1.5 0 0 1 2 14.5V9h17.5a.5.5 0 0 0 .5-.5v-2A2.5 2.5 0 0 0 17.5 4ZM2 6.5A1.5 1.5 0 0 1 3.5 5h14A1.5 1.5 0 0 1 19 6.5V8H2Z"/><path d="M18.5 11a4.5 4.5 0 1 0 4.5 4.5 4.51 4.51 0 0 0-4.5-4.5Zm0 8a3.5 3.5 0 1 1 3.5-3.5 3.5 3.5 0 0 1-3.5 3.5Z"/><path d="M20 15.5a.5.5 0 0 1-.5.5H19v.5a.5.5 0 0 1-1 0V16h-.5a.5.5 0 0 1 0-1h.5v-.5a.5.5 0 0 1 1 0v.5h.5a.5.5 0 0 1 .5.5Z"/></svg>