<svg width="20" height="16" viewBox="0 0 20 16" fill="none" xmlns="http://www.w3.org/2000/svg">
<path d="M4.58333 8H0.916667C0.410406 8 0 8.44772 0 9V15C0 15.5523 0.410406 16 0.916667 16H4.58333C5.08959 16 5.5 15.5523 5.5 15V9C5.5 8.44772 5.08959 8 4.58333 8Z" fill="#022964"/>
<path d="M18.5833 4H14.9167C14.4104 4 14 4.44772 14 5V15C14 15.5523 14.4104 16 14.9167 16H18.5833C19.0896 16 19.5 15.5523 19.5 15V5C19.5 4.44772 19.0896 4 18.5833 4Z" fill="#022964"/>
<path d="M11.5833 0H7.91667C7.41041 0 7 0.447715 7 1V15C7 15.5523 7.41041 16 7.91667 16H11.5833C12.0896 16 12.5 15.5523 12.5 15V1C12.5 0.447715 12.0896 0 11.5833 0Z" fill="#022964"/>
</svg>
