<svg xmlns="http://www.w3.org/2000/svg" viewBox="0 0 48 48"><path d="M37 16h-1A12 12 0 0 0 25.79 5.15L25.91 4H33a1 1 0 0 0 0-2h-8a1 1 0 0 0-1 .9L23.8 5a12 12 0 0 0-11.75 11H11a1 1 0 0 0-1 1v4a1 1 0 0 0 1 1h1.08l1.77 21.25a3 3 0 0 0 3 2.75h14.31a3 3 0 0 0 3-2.75L35.92 22H37a1 1 0 0 0 1-1v-4a1 1 0 0 0-1-1ZM24 7a10 10 0 0 1 10 9H14.05A10 10 0 0 1 24 7Zm8.83 28h-2.12a7 7 0 0 0 0-4h2.45ZM29 33a5 5 0 1 1-5-5 5 5 0 0 1 5 5Zm-11.71 2h-2.12l-.33-4h2.45a7 7 0 0 0 0 4Zm13.87 9H16.84a1 1 0 0 1-1-.92l-.5-6.08h2.92a7 7 0 0 0 11.48 0h2.92l-.5 6.08a1 1 0 0 1-1 .92Zm2.17-15h-3.59a7 7 0 0 0-11.48 0h-3.59l-.58-7h19.82ZM36 20H12v-2h24Z" data-name="Layer 24"/></svg>