<svg xmlns="http://www.w3.org/2000/svg" width="128pt" height="128pt" viewBox="0 0 128 128" style="isolation:isolate"><path d="M 40.9375 12.482422 A 1.250125 1.250125 0 0 0 39.707031 13.75 C 39.707031 15.741767 38.804452 16.615477 37.556641 17.912109 C 36.308828 19.208742 34.707031 20.930284 34.707031 23.75 C 34.707031 26.570226 36.317197 28.262743 37.560547 29.535156 C 38.803897 30.80757 39.707031 31.666666 39.707031 33.75 C 39.707031 35.833334 38.81191 36.666677 37.566406 37.931641 C 36.320904 39.196604 34.707031 40.898018 34.707031 43.75 C 34.707031 46.601982 36.337797 48.26341 37.576172 49.492188 C 38.814547 50.720965 39.707031 51.531182 39.707031 53.75 A 1.250125 1.250125 0 1 0 42.207031 53.75 C 42.207031 50.735067 40.597563 48.968644 39.335938 47.716797 C 38.074312 46.464949 37.207031 45.741767 37.207031 43.75 C 37.207031 41.758232 38.093159 40.959646 39.347656 39.685547 C 40.602152 38.411448 42.207031 36.666666 42.207031 33.75 C 42.207031 30.833334 40.608211 29.075086 39.351562 27.789062 C 38.094912 26.503039 37.207031 25.696024 37.207031 23.75 C 37.207031 21.804716 38.105234 20.947664 39.357422 19.646484 C 40.609611 18.345304 42.207031 16.601983 42.207031 13.75 A 1.250125 1.250125 0 0 0 40.9375 12.482422 z M 72.167969 12.482422 A 1.250125 1.250125 0 0 0 70.9375 13.75 C 70.9375 15.741767 70.034921 16.615477 68.787109 17.912109 C 67.539297 19.208742 65.9375 20.930284 65.9375 23.75 C 65.9375 26.570226 67.549619 28.262743 68.792969 29.535156 C 70.03632 30.80757 70.9375 31.666666 70.9375 33.75 C 70.9375 35.833334 70.042379 36.666677 68.796875 37.931641 C 67.551372 39.196604 65.9375 40.898018 65.9375 43.75 C 65.9375 46.601982 67.568266 48.26341 68.806641 49.492188 C 70.045016 50.720965 70.9375 51.531182 70.9375 53.75 A 1.250125 1.250125 0 1 0 73.4375 53.75 C 73.4375 50.735067 71.829984 48.968644 70.568359 47.716797 C 69.306734 46.464949 68.4375 45.741767 68.4375 43.75 C 68.4375 41.758232 69.323627 40.959646 70.578125 39.685547 C 71.832621 38.411448 73.4375 36.666666 73.4375 33.75 C 73.4375 30.833334 71.83868 29.075086 70.582031 27.789062 C 69.325381 26.503039 68.4375 25.696024 68.4375 23.75 C 68.4375 21.804716 69.335703 20.947664 70.587891 19.646484 C 71.840079 18.345304 73.4375 16.601983 73.4375 13.75 A 1.250125 1.250125 0 0 0 72.167969 12.482422 z M 102.48047 12.482422 A 1.250125 1.250125 0 0 0 101.25 13.75 C 101.25 15.741767 100.34742 16.615477 99.099609 17.912109 C 97.851797 19.208742 96.25 20.930284 96.25 23.75 C 96.25 26.570226 97.862119 28.262743 99.105469 29.535156 C 100.34882 30.80757 101.25 31.666666 101.25 33.75 C 101.25 35.833334 100.35488 36.666677 99.109375 37.931641 C 97.863872 39.196604 96.25 40.898018 96.25 43.75 C 96.25 46.601982 97.880766 48.26341 99.119141 49.492188 C 100.35752 50.720965 101.25 51.531182 101.25 53.75 A 1.250125 1.250125 0 1 0 103.75 53.75 C 103.75 50.735067 102.14248 48.968644 100.88086 47.716797 C 99.619234 46.464949 98.75 45.741767 98.75 43.75 C 98.75 41.758232 99.636127 40.959646 100.89062 39.685547 C 102.14512 38.411448 103.75 36.666666 103.75 33.75 C 103.75 30.833334 102.15118 29.075086 100.89453 27.789062 C 99.637881 26.503039 98.75 25.696024 98.75 23.75 C 98.75 21.804716 99.648203 20.947664 100.90039 19.646484 C 102.15258 18.345304 103.75 16.601983 103.75 13.75 A 1.250125 1.250125 0 0 0 102.48047 12.482422 z M 56.552734 32.482422 A 1.250125 1.250125 0 0 0 55.322266 33.75 C 55.322266 35.833334 54.427143 36.666677 53.181641 37.931641 C 51.936137 39.196604 50.322267 40.898018 50.322266 43.75 C 50.322266 46.601982 51.953031 48.26341 53.191406 49.492188 C 54.429783 50.720965 55.322266 51.531182 55.322266 53.75 A 1.250125 1.250125 0 1 0 57.822266 53.75 C 57.822266 50.735067 56.214749 48.968644 54.953125 47.716797 C 53.6915 46.464949 52.822267 45.741767 52.822266 43.75 C 52.822266 41.758232 53.708394 40.959646 54.962891 39.685547 C 56.217388 38.411448 57.822267 36.666666 57.822266 33.75 A 1.250125 1.250125 0 0 0 56.552734 32.482422 z M 86.074219 32.482422 A 1.250125 1.250125 0 0 0 84.84375 33.75 C 84.84375 35.833334 83.948629 36.666677 82.703125 37.931641 C 81.457622 39.196604 79.84375 40.898018 79.84375 43.75 C 79.84375 46.601982 81.474516 48.26341 82.712891 49.492188 C 83.951266 50.720965 84.84375 51.531182 84.84375 53.75 A 1.250125 1.250125 0 1 0 87.34375 53.75 C 87.34375 50.735067 85.736234 48.968644 84.474609 47.716797 C 83.212984 46.464949 82.34375 45.741767 82.34375 43.75 C 82.34375 41.758232 83.229877 40.959646 84.484375 39.685547 C 85.738871 38.411448 87.34375 36.666666 87.34375 33.75 A 1.250125 1.250125 0 0 0 86.074219 32.482422 z M 29.119141 58.75 C 25.824177 58.75 23.125 61.449177 23.125 64.744141 L 23.125 65.255859 C 23.125 68.211717 25.299221 70.681822 28.125 71.160156 L 28.125 128.75 L 27.375 128.75 C 23.663174 128.75 20.625 131.78817 20.625 135.5 L 20.625 144.5 C 20.625 148.21182 23.663174 151.25 27.375 151.25 L 36.375 151.25 C 39.090326 151.25 41.438994 149.62112 42.507812 147.29492 C 43.37841 149.5975 45.604776 151.25 48.201172 151.25 L 57.035156 151.25 C 60.382045 151.25 63.125 148.509 63.125 145.16211 L 63.125 141.68555 L 98.941406 141.68555 C 105.37666 141.68555 110.625 136.43654 110.625 130 L 110.625 116.25 L 122.87109 116.25 C 131.96654 116.25 139.375 108.84153 139.375 99.746094 L 139.375 90.253906 C 139.375 81.158468 131.96654 73.75 122.87109 73.75 L 110.625 73.75 L 110.625 71.160156 C 113.45078 70.681822 115.625 68.211717 115.625 65.255859 L 115.625 64.744141 C 115.625 61.449177 112.92582 58.75 109.63086 58.75 L 29.119141 58.75 z M 29.119141 61.25 L 109.63086 61.25 C 111.5734 61.25 113.125 62.801603 113.125 64.744141 L 113.125 65.255859 C 113.125 67.198397 111.5734 68.75 109.63086 68.75 L 29.119141 68.75 C 27.176603 68.75 25.625 67.198397 25.625 65.255859 L 25.625 64.744141 C 25.625 62.801603 27.176603 61.25 29.119141 61.25 z M 30.625 71.25 L 108.125 71.25 L 108.125 130 C 108.125 135.08346 104.02365 139.18555 98.941406 139.18555 L 63.125 139.18555 L 63.125 138.11328 C 63.125 134.76547 60.381655 132.02344 57.035156 132.02344 L 53.117188 132.02344 C 54.241648 131.18201 55.106853 129.97886 55.496094 128.52539 L 57.693359 120.33008 C 58.617406 116.88535 56.551683 113.30869 53.107422 112.38477 L 44.755859 110.14648 C 43.894916 109.91582 43.023371 109.87268 42.189453 109.99023 C 39.687701 110.34289 37.504529 112.15142 36.8125 114.73438 L 34.617188 122.93164 C 34.053032 125.03475 34.606567 127.18325 35.904297 128.75 L 30.625 128.75 L 30.625 71.25 z M 110.625 76.25 L 122.87109 76.25 C 130.61315 76.25 136.875 82.511845 136.875 90.253906 L 136.875 99.746094 C 136.875 107.48815 130.61315 113.75 122.87109 113.75 L 110.625 113.75 L 110.625 107.5 L 119.80078 107.5 C 126.18378 107.5 131.62109 103.23777 131.62109 97.667969 L 131.62109 92.332031 C 131.62109 86.762229 126.18378 82.5 119.80078 82.5 L 110.625 82.5 L 110.625 76.25 z M 110.625 85 L 119.80078 85 C 125.08529 85 129.12108 88.429335 129.12109 92.332031 L 129.12109 97.667969 C 129.12109 101.57067 125.08529 105 119.80078 105 L 110.625 105 L 110.625 85 z M 43.308594 112.43164 C 43.573835 112.44819 43.842347 112.49096 44.109375 112.5625 L 52.460938 114.79883 C 54.599176 115.37241 55.850798 117.54192 55.277344 119.67969 L 53.082031 127.87891 C 52.50961 130.01639 50.338976 131.26978 48.201172 130.69727 L 39.847656 128.45898 C 37.709418 127.8854 36.457796 125.7159 37.03125 123.57812 L 39.228516 115.38086 C 39.657737 113.77882 40.984566 112.67219 42.523438 112.46094 C 42.779916 112.42573 43.043352 112.41509 43.308594 112.43164 z M 27.375 131.25 L 36.375 131.25 C 38.733175 131.25 40.625 133.14183 40.625 135.5 L 40.625 144.5 C 40.625 146.85817 38.733175 148.75 36.375 148.75 L 27.375 148.75 C 25.016825 148.75 23.125 146.85817 23.125 144.5 L 23.125 135.5 C 23.125 133.14183 25.016825 131.25 27.375 131.25 z M 41.857422 131.58789 L 45.638672 132.59961 C 44.59577 133.08845 43.711829 133.86207 43.089844 134.82227 C 42.96886 133.62396 42.526625 132.52091 41.857422 131.58789 z M 48.201172 134.52344 L 57.035156 134.52344 C 59.028659 134.52344 60.625 136.11861 60.625 138.11328 L 60.625 145.16211 C 60.625 147.15522 59.028269 148.75 57.035156 148.75 L 48.201172 148.75 C 46.208059 148.75 44.611328 147.15522 44.611328 145.16211 L 44.611328 138.11328 C 44.611328 136.11861 46.207669 134.52344 48.201172 134.52344 z " color="#000" font-family="sans-serif" font-weight="400" overflow="visible" transform="scale(.8)" style="line-height:normal;text-indent:0;text-align:start;text-decoration-line:none;text-decoration-style:solid;text-decoration-color:#000;text-transform:none;block-progression:tb;isolation:auto;mix-blend-mode:normal"/></svg>