<svg xmlns="http://www.w3.org/2000/svg" enable-background="new 0 0 16 16" viewBox="0 0 16 16"><g display="none"><path fill="none" stroke="#000" stroke-linecap="round" stroke-linejoin="round" stroke-miterlimit="10" d="M12.5,13.5h-11c-0.6,0-1-0.4-1-1v-9c0-0.6,0.4-1,1-1h13c0.6,0,1,0.4,1,1v9c0,0.6-0.4,1-1,1"/><polyline fill="none" stroke="#000" stroke-linejoin="round" stroke-miterlimit="10" points="15.2 2.8 8 8.5 .8 2.8"/></g><path d="M14.5,2h-13C0.7,2,0,2.7,0,3.5v9C0,13.3,0.7,14,1.5,14h11c0.3,0,0.5-0.2,0.5-0.5S12.8,13,12.5,13h-11
		C1.2,13,1,12.8,1,12.5v-9l6.7,5.4C7.8,9,7.9,9,8,9s0.2,0,0.3-0.1L15,3.5v9c0,0.3-0.2,0.5-0.5,0.5c-0.3,0-0.5,0.2-0.5,0.5
		s0.2,0.5,0.5,0.5c0.8,0,1.5-0.7,1.5-1.5v-9C16,2.7,15.3,2,14.5,2z M8,7.9L1.9,3h12.1L8,7.9z" display="none"/><g display="none"><path fill="#f9b65f" d="M15.2,2.8L8,8.5L2,3.7v7.8c0,1.1,0.9,2,2,2h10.5c0.6,0,1-0.4,1-1v-9C15.5,3.2,15.4,2.9,15.2,2.8z"/><path fill="#e67e22" d="M15.2,2.8L8,8.5L0.8,2.8C1,2.6,1.2,2.5,1.5,2.5h13C14.8,2.5,15,2.6,15.2,2.8z"/><path fill="#3e3643" d="M14.5,2h-13C0.7,2,0,2.7,0,3.5v9C0,13.3,0.7,14,1.5,14h11c0.3,0,0.5-0.2,0.5-0.5S12.8,13,12.5,13h-11
			C1.2,13,1,12.8,1,12.5v-9l6.7,5.4C7.8,9,7.9,9,8,9s0.2,0,0.3-0.1L15,3.5v9c0,0.3-0.2,0.5-0.5,0.5c-0.3,0-0.5,0.2-0.5,0.5
			s0.2,0.5,0.5,0.5c0.8,0,1.5-0.7,1.5-1.5v-9C16,2.7,15.3,2,14.5,2z M8,7.9L1.9,3h12.1L8,7.9z"/></g><g display="none"><path fill="#fc9942" d="M15.5,2.4L15.5,2.4C15.5,2.4,15.5,2.4,15.5,2.4c-0.1-0.1-0.2-0.1-0.2-0.2C15.1,2.1,15,2.1,14.8,2
			c-0.1,0-0.2,0-0.3,0H8v7c0.1,0,0.2,0,0.3-0.1l7.2-5.8c0.1-0.1,0.2-0.2,0.2-0.4C15.7,2.6,15.6,2.5,15.5,2.4z"/><path fill="#ffda45" d="M15.5,2.4c0.1,0.1,0.2,0.2,0.2,0.4c0,0.1-0.1,0.3-0.2,0.4L8.3,8.9C8.2,9,8.1,9,8,9v5h6.5
			c0.8,0,1.5-0.7,1.5-1.5v-9C16,3.1,15.8,2.7,15.5,2.4z"/><path fill="#ffc247" d="M8,2H1.5C1.4,2,1.3,2,1.2,2C1,2.1,0.9,2.1,0.7,2.2c-0.1,0-0.1,0.1-0.2,0.1c0,0,0,0,0,0l0,0
			C0.4,2.5,0.3,2.6,0.3,2.8c0,0.1,0.1,0.3,0.2,0.4l7.2,5.8C7.8,9,7.9,9,8,9V2z"/><path fill="#ffee6e" d="M8,9C7.9,9,7.8,9,7.7,8.9L0.5,3.1C0.4,3,0.3,2.9,0.3,2.8c0-0.1,0.1-0.3,0.2-0.4C0.2,2.7,0,3.1,0,3.5v9
			C0,13.3,0.7,14,1.5,14H8V9z"/></g><path fill="#3e5959" d="M8,9C7.9,9,7.8,9,7.7,8.9L0.5,3.1l0.6-0.8L8,7.9l6.8-5.5l0.6,0.8L8.3,8.9C8.2,9,8.1,9,8,9z"/><path fill="#1689fc" d="M14.5,14c-0.3,0-0.5-0.2-0.5-0.5s0.2-0.5,0.5-0.5c0.3,0,0.5-0.2,0.5-0.5v-9C15,3.2,14.8,3,14.5,3h-13
				C1.2,3,1,3.2,1,3.5v9C1,12.8,1.2,13,1.5,13h11c0.3,0,0.5,0.2,0.5,0.5S12.8,14,12.5,14h-11C0.7,14,0,13.3,0,12.5v-9
				C0,2.7,0.7,2,1.5,2h13C15.3,2,16,2.7,16,3.5v9C16,13.3,15.3,14,14.5,14z"/><g display="none"><path fill="#00ecce" d="M15.5,3.5v9c0,0.5-0.5,1-1,1h-13c-0.5,0-1-0.5-1-1v-9c0-0.3,0.1-0.6,0.3-0.8L8,8.5l7.2-5.8
			C15.4,2.9,15.5,3.2,15.5,3.5z"/><path fill="#01a28e" d="M14.5,2h-13C0.7,2,0,2.7,0,3.5v9C0,13.3,0.7,14,1.5,14h11c0.3,0,0.5-0.2,0.5-0.5S12.8,13,12.5,13h-11
			C1.2,13,1,12.8,1,12.5v-9l6.7,5.4C7.8,9,7.9,9,8,9s0.2,0,0.3-0.1L15,3.5v9c0,0.3-0.2,0.5-0.5,0.5c-0.3,0-0.5,0.2-0.5,0.5
			s0.2,0.5,0.5,0.5c0.8,0,1.5-0.7,1.5-1.5v-9C16,2.7,15.3,2,14.5,2z M8,7.9L1.9,3h12.1L8,7.9z"/></g></svg>