<svg xmlns="http://www.w3.org/2000/svg" viewBox="0 0 32 32"><path d="M26,9.17h0C26,9.1,26,9,26,9a4,4,0,0,0-3.54-4A4,4,0,0,0,19,3l-.35,0a4.08,4.08,0,0,0-5.3,0L13,3A4,4,0,0,0,9.54,5,4,4,0,0,0,6,9C6,9,6,9.1,6,9.17H6a3.82,3.82,0,0,0,.19,1L9,25.07V29a1,1,0,0,0,1,1H22a1,1,0,0,0,1-1V25.07l2.79-14.89A3.82,3.82,0,0,0,26,9.17ZM10,7h0a1,1,0,0,0,1.11-.65A2,2,0,0,1,13,5a2.25,2.25,0,0,1,.48.06,1,1,0,0,0,1-.33,2,2,0,0,1,3.06,0,1,1,0,0,0,1,.33A2.25,2.25,0,0,1,19,5a2,2,0,0,1,1.88,1.35A1,1,0,0,0,22,7a2,2,0,0,1,1.73,1H8.27A2,2,0,0,1,10,7ZM21,28H11V26H21Zm.17-4H10.83L8.21,10H23.79Z"/><path d="M16,21a1,1,0,0,0,1-1V14a1,1,0,0,0-2,0v6A1,1,0,0,0,16,21Z"/></svg>