<svg xmlns="http://www.w3.org/2000/svg" fill-rule="evenodd" stroke-linejoin="round" stroke-miterlimit="2" clip-rule="evenodd" viewBox="0 0 32 32"><path d="M293,206.414L293,219C293,219.808 293.347,220.586 293.982,221.158C294.577,221.693 295.381,222 296.222,222L311.778,222C312.619,222 313.423,221.693 314.018,221.158C314.653,220.586 315,219.808 315,219L315,206.414L316.293,207.707C316.683,208.097 317.317,208.097 317.707,207.707C318.097,207.317 318.097,206.683 317.707,206.293C317.707,206.293 308.126,196.711 305.414,194C304.633,193.219 303.367,193.219 302.586,194L290.293,206.293C289.903,206.683 289.903,207.317 290.293,207.707C290.683,208.097 291.317,208.097 291.707,207.707L293,206.414ZM295,204.414L295,219C295,219.253 295.121,219.492 295.32,219.671C295.559,219.886 295.885,220 296.222,220L299,220L299,215C299,213.343 300.343,212 302,212L306,212C307.657,212 309,213.343 309,215L309,220L311.778,220C312.115,220 312.441,219.886 312.68,219.671C312.879,219.492 313,219.253 313,219L313,204.414L304,195.414L295,204.414ZM307,220L301,220L301,215C301,214.448 301.448,214 302,214C302,214 306,214 306,214C306.552,214 307,214.448 307,215L307,220Z" transform="translate(-288 -192)"/></svg>