<svg xmlns="http://www.w3.org/2000/svg" enable-background="new 0 0 512 512" viewBox="0 0 512 512"><path d="M386.2,100.776c0.266-7.303,0.48-14.606,0.586-22.015c0.213-14.712-11.62-26.866-26.386-26.866H176.658
			c0,0-26.333,0-150.267,0c-14.766,0-26.653,12.207-26.386,26.866c2.345,144.19,26.972,269.404,41.472,331.185
			c6.93,29.531,32.943,50.16,63.326,50.16c0.053,0,0.053,0,0.053,0h177.08c30.437,0,56.503-20.683,63.38-50.267
			c0.853-3.678,1.812-7.783,2.772-12.313c37.367-7.303,106.184-29.371,143.231-94.777C505.284,278.068,512,251.362,512,225.723
			C512,159.678,467.33,100.562,386.2,100.776z M383.535,153.228c73.081-1.706,93.39,68.497,62.154,123.615
			c-23.774,42.058-63.753,57.516-86.035,63.86C368.662,291.608,378.524,226.096,383.535,153.228z M334.921,407.386
			c-5.757,24.734-27.559,42.058-52.985,42.058h-177.08c-12.74,0-24.52-4.318-33.849-11.674c-9.382-7.409-16.258-17.91-19.137-30.224
			C37.478,346.139,12.957,221.778,10.665,78.6c-0.16-8.795,6.93-16.045,15.725-16.045h28.145v165.033
			c0,21.002,17.058,38.06,38.06,38.06s38.06-17.058,38.06-38.06v-57.943c0-6.823,5.544-12.367,12.367-12.367
			c6.77,0,12.313,5.544,12.313,12.367v9.275c0,21.002,17.111,38.06,38.06,38.06c21.002,0,38.06-17.058,38.06-38.06V62.556H360.4
			c8.689,0,15.885,7.196,15.725,16.045C373.727,226.149,346.541,357.706,334.921,407.386z"/></svg>