<svg xmlns="http://www.w3.org/2000/svg" viewBox="0 0 64 64"><path d="M16,46a23,23,0,0,0-3.05-2c3.37-5.49,10.11-9.34,18-9.67a34.41,34.41,0,0,1,4.43-12.94,2.29,2.29,0,0,1,1.23-.31,2.79,2.79,0,0,1,1.14.23,1.54,1.54,0,0,1,.77.76,30.16,30.16,0,0,0-4.53,12.3C41.44,35,47.83,38.74,51.09,44A23.07,23.07,0,0,0,48,46c-1.36,1-1.53,1.14-2.61,1.14S44.16,47.06,42.8,46a17,17,0,0,0-21.61,0c-1.36,1-1.53,1.14-2.61,1.14S17.32,47.06,16,46Zm42.49-.13a2.45,2.45,0,0,0-1.59-.59l-.37,0a14,14,0,0,0-6.67,3.09c-1.5,1.12-2.33,1.74-4.41,1.74s-2.91-.62-4.41-1.74a14,14,0,0,0-18,0c-1.5,1.12-2.33,1.74-4.41,1.74s-2.91-.62-4.41-1.74A14,14,0,0,0,7.5,45.35a2.37,2.37,0,0,0-.37,0,2.44,2.44,0,0,0-1.58.59,2.52,2.52,0,0,0-.88,1.92v2.73A2.48,2.48,0,0,0,6.61,53a7.34,7.34,0,0,1,3,1.61,13.68,13.68,0,0,0,9,3.27,13.69,13.69,0,0,0,9-3.27c1.5-1.12,2.33-1.74,4.41-1.74s2.91.62,4.41,1.74a14,14,0,0,0,18,0,7.36,7.36,0,0,1,3-1.61,2.48,2.48,0,0,0,1.94-2.43V47.83A2.52,2.52,0,0,0,58.45,45.92ZM22.37,17a1.18,1.18,0,0,0,.53.13,1.21,1.21,0,0,0,1-.59A3.49,3.49,0,0,1,27,14.9a4.29,4.29,0,0,1,1.71.36,4.06,4.06,0,0,1,.63.36A20.94,20.94,0,0,1,39.72,5.51c-.49,0-1-.08-1.5-.08a18.94,18.94,0,0,0-7,1.39,17,17,0,0,0-9.41,8.63A1.21,1.21,0,0,0,22.37,17Zm25.16,6.4a3.8,3.8,0,0,1,2.4,4.17A1.2,1.2,0,0,0,51.1,29a1.2,1.2,0,0,0,1.11-.75c2.37-5.83,1.42-13.45-3.09-18.27a27.51,27.51,0,0,1-2.29,13.17A4.4,4.4,0,0,1,47.53,23.41ZM31,19.82a1.36,1.36,0,0,0,.82,1.29,1.2,1.2,0,0,0,1.5-.49,3.7,3.7,0,0,1,3.21-1.51,4.8,4.8,0,0,1,2,.41,3.53,3.53,0,0,1,1.95,4.18,1.2,1.2,0,0,0,.67,1.44l.11,0a1.13,1.13,0,0,0,.46.1,1.21,1.21,0,0,0,.9-.41,24.48,24.48,0,0,0,3.23-17,1.19,1.19,0,0,0-.45-.72L45,7a1.22,1.22,0,0,0-.36-.06,1.17,1.17,0,0,0-.34.05C34.38,10,31.7,17,31,19.82Z" data-name="Layer 22"/></svg>