<svg xmlns="http://www.w3.org/2000/svg" width="550" height="550"><path d="M405.007 203.832c-5.973-28.141-21.074-53.832-43.073-72.997C340.048 111.769 312.676 100.42 284 98.35V72.329l133.144-43.807c5.246-1.726 8.1-7.378 6.374-12.625-1.727-5.246-7.378-8.1-12.625-6.374L270.875 55.592A10 10 0 0 0 264 65.091v33.317c-28.406 2.212-55.494 13.525-77.191 32.427-21.934 19.108-37.012 44.703-43.021 72.747-10.171 2.35-17.789 11.622-17.789 22.69 0 10.362 6.634 18.898 16 21.729l26.079 283.915a10 10 0 0 0 9.958 9.085h196.806a10 10 0 0 0 9.968-9.206l22.643-284.417c8.514-3.354 14.546-11.551 14.546-21.123.001-10.694-7.209-19.719-16.992-22.423zM148.846 229c-1.676 0-2.846-1.122-2.846-2.746 0-1.764 1.303-3.254 2.846-3.254H264v6H148.846zM284 223h114.897c1.625 0 3.104 1.551 3.104 3.271 0 1.708-1.578 2.729-3.104 2.729H284v-6zm100.274-20H284v-84.59c47.66 4.088 88.253 38.449 100.274 84.59zM264 118.487V203h-99.531c11.958-45.899 52.194-80.132 99.531-84.513zM365.607 521H187.16l-24.985-272H264v200c0 5.522 4.477 10 10 10s10-4.478 10-10V249h103.261l-21.654 272z"/></svg>