<svg xmlns="http://www.w3.org/2000/svg" viewBox="0 0 52 52"><path d="M6.539 36.152c2.804-2.911 5.532-5.94 8.541-8.645 2.434-2.188 5.069-3.816 7.128-6.376 2.55-3.17 5.656-5.724 8.412-8.725 1.264-1.375 2.629-2.623 4.027-3.858 1.206-1.065 3.26-3.678 4.763-4.146 2.715-.846 5.219 1.177 6.561 3.228 2.57 3.926 1.051 6.706-1.851 9.636-3.091 3.12-6.319 6.099-9.556 9.065-6.455 5.914-12.927 11.809-19.39 17.713h1.767c-3.244-3.752-6.504-7.241-10.921-9.596-1.42-.757-2.684 1.4-1.262 2.158 4.23 2.256 7.32 5.626 10.415 9.206.456.527 1.298.429 1.768 0 8.773-8.014 17.727-15.874 26.268-24.137 2.47-2.39 7.434-5.86 7.815-9.663.365-3.65-3.778-7.072-6.222-9.207-1.936-1.692-3.786-2.373-6.097-1.003-4.141 2.456-7.983 6.801-11.17 10.368-7.047 7.888-15.382 14.55-22.764 22.215-1.117 1.159.649 2.929 1.768 1.767z"/><path d="M31.99 8.424c.771 2.069 1.905 4.405 3.567 5.91.873.79 1.953 1.32 2.904 2.005 1.29.929 2.39 2.051 3.399 3.275 1.024 1.243 2.784-.535 1.768-1.768-1.455-1.765-3.127-3.152-5.029-4.407-2.043-1.348-3.344-3.388-4.2-5.68-.556-1.493-2.974-.847-2.41.665zM50.312 48.43l-48.624-.134c-1.61-.005-1.612 2.495 0 2.5l48.624.133c1.61.005 1.612-2.495 0-2.5z"/><path d="M14.84 44.748a245.75 245.75 0 0 0-13.227 2.388c-1.574.329-.908 2.739.665 2.41a245.753 245.753 0 0 1 13.227-2.388c1.585-.241.912-2.65-.665-2.41z"/><path d="M4.135 35.835c-.15.973-.75 1.812-1.052 2.742-.353 1.092-.558 2.249-.821 3.364-.502 2.122-.557 4.632-1.326 6.636-.577 1.504 1.839 2.154 2.41.665.786-2.046.817-4.483 1.326-6.636.24-1.01.422-2.057.727-3.049.329-1.068.976-1.948 1.146-3.057.242-1.574-2.166-2.253-2.41-.665z"/></svg>